<?xml version="1.0" encoding="UTF-8"?>
<svg width="181px" height="29px" viewBox="0 0 181 29" version="1.1" xmlns="http://www.w3.org/2000/svg" xmlns:xlink="http://www.w3.org/1999/xlink">
    <!-- Generator: Sketch 58 (84663) - https://sketch.com -->
    <title>logo</title>
    <desc>Created with Sketch.</desc>
    <g id="Page-1" stroke="none" stroke-width="1" fill="none" fill-rule="evenodd">
        <g id="Homepage-V2-Copy" transform="translate(-376.000000, -43.000000)" fill-rule="nonzero">
            <g id="logo" transform="translate(376.000000, 43.000000)">
                <path d="M16.105,6.057 L22,22 L16.7002801,22 L15.1288515,17.5317348 L12.044,17.531 L16.105,6.057 Z M12.919446,0 L10.975,5.479 L10.9691877,5.46121298 L8.858,11.448 L6.699,17.531 L6.68627451,17.5317348 L5.11484594,22 L0,22 L8.22689076,-5.68434189e-14 L12.919446,0 Z" id="Combined-Shape" fill="#FFFFFF"></path>
                <path d="M34.5464927,-2.84217094e-14 C40.8009788,-2.84217094e-14 45,4.22002821 45,11.0155148 C45,17.8110014 40.8009788,22 34.5171289,22 L34.5171289,22 L27,22 L27,-2.84217094e-14 Z M34.3409462,4.62341326 L31.639478,4.62341326 L31.639478,17.3765867 L34.3409462,17.3765867 C37.5415987,17.3765867 40.1549755,15.4217207 40.1549755,11.0155148 C40.1549755,6.60930889 37.5415987,4.62341326 34.3409462,4.62341326 L34.3409462,4.62341326 Z" id="Combined-Shape" fill="#FFFFFF"></path>
                <path d="M70.9698709,21.5534506 L70.9698709,10.270636 L60.0932568,10.270636 L60.0932568,14.2598106 L66.5107604,14.2598106 C66.2395983,15.4506089 64.7632712,17.7131258 61.2381636,17.7131258 C57.7733142,17.7131258 54.82066,15.420839 54.82066,11.014885 C54.82066,6.31123139 58.2252511,4.40595399 61.1176471,4.40595399 C64.6728838,4.40595399 66.0889527,6.78755074 66.420373,8.09742896 L71,6.51962111 C70.0659971,3.57239513 67.2338594,0 61.1176471,0 C55.0918221,0 50,4.37618403 50,11.014885 C50,17.6833559 54.8809182,22 60.8163558,22 C63.8593974,22 65.8780488,20.7496617 66.8120516,19.4100135 L67.1133429,21.5534506 L70.9698709,21.5534506 Z" id="Path" fill="#FFFFFF"></path>
                <path d="M75,18.4829268 C75,20.3609756 76.5707317,22 78.4829268,22 C80.395122,22 82,20.3609756 82,18.4829268 C82,16.5707317 80.395122,15 78.4829268,15 C76.5707317,15 75,16.5707317 75,18.4829268 Z" id="Path" fill="#E1272A"></path>
                <path d="M100.879017,0 L100.879565,19.1882217 C100.884616,20.0241918 100.923627,20.7091977 100.957628,21.1661045 L100.957628,21.1661045 L101,21.6707483 L96.584121,21.6707483 C96.5538752,21.4911565 96.463138,20.8326531 96.463138,20.2340136 C95.7674858,21.2517007 94.2551985,22 92.4404537,22 C88.2060491,22 85,18.7673469 85,14.1877551 C85,9.75782313 88.0245747,6.43537415 92.289225,6.43537415 C94.8601134,6.43537415 95.979206,7.39319728 96.342155,7.96190476 L96.342155,7.96190476 L96.342155,0 L100.879017,0 Z M93.0151229,10.5360544 C91.2306238,10.5360544 89.6275992,11.7333333 89.6275992,14.2176871 C89.6275992,16.6721088 91.2306238,17.9292517 93.0151229,17.9292517 C94.7996219,17.9292517 96.4026465,16.6721088 96.4026465,14.2176871 C96.4026465,11.7333333 94.7996219,10.5360544 93.0151229,10.5360544 Z" id="Combined-Shape" fill="#FFFFFF"></path>
                <path d="M112.484909,6 C117.132797,6 120,8.88425047 120,13.7419355 C120,14.3044983 119.953005,14.9143352 119.921215,15.1126087 L119.921215,15.1126087 L119.909457,15.1688805 L109.466801,15.1688805 C109.557344,16.8690702 111.096579,18.0834915 112.877264,18.0834915 C114.537223,18.0834915 115.472837,17.2941176 115.895372,16.1100569 L115.895372,16.1100569 L119.72837,17.2030361 C119.004024,19.8140417 116.619718,22 112.816901,22 C108.682093,22 105,19.0246679 105,13.9544592 C105,9.09677419 108.591549,6 112.484909,6 Z M112.545272,9.64326376 C110.613682,9.64326376 109.647887,11.0702087 109.557344,12.1935484 L109.557344,12.1935484 L115.56338,12.1935484 C115.503018,11.0398482 114.71831,9.64326376 112.545272,9.64326376 Z" id="Combined-Shape" fill="#FFFFFF"></path>
                <path d="M123,17.2637571 C123.117647,18.9335863 124.588235,22 129.176471,22 C133.088235,22 135,19.4800759 135,16.8994307 C135,14.683112 133.529412,12.800759 130.5,12.1631879 L128.558824,11.7685009 C127.911765,11.6470588 127.411765,11.2827324 127.411765,10.6451613 C127.411765,9.85578748 128.147059,9.33965844 129,9.33965844 C130.352941,9.33965844 130.970588,10.1897533 131.088235,11.1916509 L134.794118,10.4933586 L134.774544,10.3110781 C134.544181,8.55033696 133.032901,6 128.941176,6 C125.676471,6 123.323529,8.24667932 123.323529,11.0094877 C123.323529,13.089507 124.506817,14.878703 127.480022,15.6085594 L129.352941,16.0493359 C130.441176,16.2922201 130.794118,16.7476281 130.794118,17.2941176 C130.794118,17.9620493 130.235294,18.5996205 129.088235,18.5996205 C127.558824,18.5996205 126.852941,17.597723 126.794118,16.5654649 L123,17.2637571 Z" id="Path" fill="#FFFFFF"></path>
                <polygon id="Path" fill="#FFFFFF" points="143 22 143 7 138 7 138 22"></polygon>
                <path d="M137.4,3 C137.4,4.65168539 138.748315,6 140.366292,6 C142.051685,6 143.4,4.65168539 143.4,3 C143.4,1.34831461 142.051685,0 140.366292,0 C138.748315,0 137.4,1.34831461 137.4,3 Z" id="Path" fill="#FFFFFF"></path>
                <path d="M153.741245,7 C156.105058,7 157.359922,8.11392405 157.768482,8.91842475 L157.768482,8.91842475 L157.768482,7.27848101 L162,7.27848101 L162,20.7383966 C162,25.1631505 159.66537,29 154.237354,29 C150.064202,29 147.40856,26.2770745 147,23.5232068 L147,23.5232068 L150.910506,22.347398 C151.202335,23.8326301 152.36965,24.9156118 154.033074,24.9156118 C156.250973,24.9156118 157.622568,23.7707454 157.622568,20.9859353 L157.622568,20.9859353 L157.622568,20.2742616 C157.097276,21.1097046 155.842412,22.0070323 153.741245,22.0070323 C149.889105,22.0070323 147,18.7890295 147,14.5189873 C147,10.4655415 149.772374,7 153.741245,7 Z M154.558366,11.1153305 C152.894942,11.1153305 151.435798,12.4149086 151.435798,14.5189873 C151.435798,16.6230661 152.77821,17.9226442 154.558366,17.9226442 C156.367704,17.9226442 157.651751,16.6230661 157.651751,14.5189873 C157.651751,12.4149086 156.22179,11.1153305 154.558366,11.1153305 Z" id="Combined-Shape" fill="#FFFFFF"></path>
                <path d="M171.556745,13.6176471 L171.556745,22 L167,22 L167,7.38235294 L171.406852,7.38235294 L171.406852,9.05882353 C172.216274,7.67647059 174.044968,7 175.573876,7 C179.321199,7 181,9.61764706 181,12.8235294 L181,22 L176.443255,22 L176.443255,13.5882353 C176.443255,12.1470588 175.663812,11.0588235 174.014989,11.0588235 C172.51606,11.0588235 171.556745,12.1470588 171.556745,13.6176471 Z" id="Path" fill="#FFFFFF"></path>
            </g>
        </g>
    </g>
</svg>