<?xml version="1.0" encoding="UTF-8"?>
<svg width="23px" height="28px" viewBox="0 0 23 28" version="1.1" xmlns="http://www.w3.org/2000/svg" xmlns:xlink="http://www.w3.org/1999/xlink">
    <!-- Generator: Sketch 58 (84663) - https://sketch.com -->
    <title>hand</title>
    <desc>Created with Sketch.</desc>
    <g id="Page-1" stroke="none" stroke-width="1" fill="none" fill-rule="evenodd">
        <g id="Homepage-V2-Copy" transform="translate(-1829.000000, -760.000000)" fill="#E1272A" fill-rule="nonzero">
            <g id="hand" transform="translate(1841.089286, 773.500000) rotate(-16.000000) translate(-1841.089286, -773.500000) translate(1830.000000, 760.000000)">
                <path d="M12.2143838,24.1071429 L12.8570447,24.1071429 C13.212215,24.1071429 13.5,23.6754325 13.5,23.1426364 C13.5,22.6102819 13.212215,22.1785714 12.8570447,22.1785714 L12.2143838,22.1785714 C11.8592136,22.1785714 11.5714286,22.6102819 11.5714286,23.1426364 C11.5714286,23.6754325 11.8592136,24.1071429 12.2143838,24.1071429 L12.2143838,24.1071429 Z" id="Path"></path>
                <path d="M6.32153755,24.1071429 L10.0715648,24.1071429 C10.3673098,24.1071429 10.6071429,23.6754325 10.6071429,23.1426364 C10.6071429,22.6102819 10.3673098,22.1785714 10.0715648,22.1785714 L6.32153755,22.1785714 C6.02579249,22.1785714 5.78571429,22.6102819 5.78571429,23.1426364 C5.78571429,23.6754325 6.02579249,24.1071429 6.32153755,24.1071429 L6.32153755,24.1071429 Z" id="Path"></path>
                <path d="M4.0286556,21.5928717 C4.2288963,22.1331932 4.49561199,22.6459114 4.82248141,23.1192849 C4.86978878,23.1934426 4.89385032,23.280372 4.89140338,23.3685373 L4.89140338,25.6499174 C4.89140338,26.3956145 5.48967846,27 6.22783662,27 L13.3549366,27 C14.0930947,27 14.6913698,26.3956145 14.6913698,25.6499174 L14.6913698,25.4834745 C14.6913698,24.6378704 14.7315403,23.8252253 15.2133822,23.1683114 C15.3909887,22.9390405 15.5873551,22.725425 15.8006461,22.529731 C17.2755349,21.1085805 18.1062687,19.2828585 18.9084548,17.5176986 C19.6853561,15.8112468 20.4180085,14.1993462 21.6863355,12.9180655 C22.1347359,12.5332693 22.2962335,11.9056065 22.0898755,11.3490116 C21.7937966,10.7267046 21.1655466,10.3363466 20.4822405,10.3499422 C19.2644836,10.3499422 17.3195797,12.5320333 16.5479802,13.7002235 C16.2914601,14.0932595 15.9925264,14.4566323 15.6570927,14.7833384 C15.5520785,14.8836572 15.4438017,14.9800623 15.3318545,15.0709055 C15.2201112,15.1619547 15.1252926,15.2289027 15.0575941,15.2733973 C14.9813314,15.2377604 14.9154681,15.1829661 14.8659177,15.1145762 C14.71849,14.9197062 14.507442,14.403692 14.7439788,13.1386848 L16.8695479,3.95013028 C17.0379785,3.31525776 16.8503803,2.63836248 16.3805692,2.18414641 C15.9105542,1.7297243 15.2329576,1.57007924 14.6126602,1.76783318 C13.9921587,1.96538108 13.5278532,2.48881103 13.4008166,3.13336532 L12.0187073,9.13952327 L12.0187073,1.8743319 C12.0388945,0.8948319 11.2954347,0.0714751421 10.3282845,0.00226125236 C9.84032523,-0.0224579797 9.36398895,0.156344542 9.01020327,0.496646114 C8.65662143,0.836741706 8.45678858,1.30887919 8.45740032,1.80223408 L8.45740032,12.1103643 L7.11423804,3.29362838 C6.95029353,2.32690002 6.05043395,1.67101612 5.09082844,1.81809558 C4.13101898,1.9651751 3.46443368,2.86124762 3.59167419,3.83353783 L5.04861884,13.5706535 L3.45525764,8.86864156 L3.45525764,8.86143177 C3.29376007,8.38867629 2.9448682,8.00511602 2.49198171,7.80262426 C2.03929911,7.60033843 1.52360801,7.59724852 1.06868238,7.79438451 C0.201856426,8.19710213 -0.214937871,9.20358732 0.110096414,10.1097536 L4.0286556,21.5928717 Z M1.41879774,8.62144913 C1.65574239,8.51927626 1.92490501,8.52504409 2.15736364,8.63731063 C2.36759598,8.74360343 2.52950135,8.92714377 2.61025013,9.15023494 L2.61025013,9.15579679 L4.20422302,13.8600746 C4.32086021,14.2244774 4.65710957,14.4712579 5.03618022,14.4706399 C5.1112195,14.4704339 5.18605488,14.4611642 5.25905507,14.4432428 C5.71071812,14.338186 6.00353438,13.8961235 5.92706776,13.4342857 L4.47053092,3.69902396 C4.39671508,3.20731702 4.7313332,2.74836313 5.21806896,2.67399937 C5.70460076,2.59942968 6.15891465,2.93746531 6.23273048,3.42896628 L7.57446533,12.2459081 C7.64481469,12.7108358 8.05773461,13.0426917 8.52204012,13.0072608 C8.98634569,12.9718298 9.34543308,12.5812658 9.34604478,12.1107762 L9.34604478,1.79996814 C9.34482134,1.55298175 9.44494169,1.31670697 9.62254825,1.14696817 C9.80015476,0.976817414 10.0391385,0.887416127 10.2836279,0.899981729 C10.7746458,0.950450222 11.1437248,1.3750032 11.1300628,1.87330194 L11.1300628,12.0792592 C11.1304706,12.3647664 11.3425382,12.6045431 11.6233237,12.6370901 C11.9041093,12.6696371 12.1645037,12.4846548 12.2289396,12.2067693 L14.2694778,3.33812302 C14.3233103,3.10390821 14.4676794,2.90121042 14.670367,2.77514228 C14.9766414,2.58377416 15.3665194,2.59736972 15.6589279,2.80954324 C15.9513364,3.02171672 16.0885685,3.39085741 16.0068002,3.74496057 L13.8775607,12.9473166 L13.8775607,12.9567923 C13.8775607,12.9600882 13.874502,12.9627661 13.8738903,12.965856 C13.63613,14.2316872 13.7456302,15.154127 14.1995363,15.7109279 C14.209324,15.7220516 14.2191118,15.7302913 14.2291034,15.741003 C14.0317175,15.8161907 13.8280103,15.8792248 13.6169624,15.9430828 C12.9387541,16.1237393 12.3512863,16.5526181 11.9687491,17.1462919 C11.7179384,17.53459 11.5807063,17.9865402 11.5731616,18.450026 C11.5731616,18.6984544 11.7725867,18.8999162 12.0187073,18.8999162 C12.2646241,18.8999162 12.4640491,18.6984544 12.4640491,18.450026 C12.4709821,18.155867 12.5596834,17.8697418 12.7203654,17.6241973 C12.9883045,17.2146818 13.3985736,16.9215528 13.870016,16.8024885 C14.3439053,16.6793042 14.7996466,16.4934979 15.2254129,16.2500134 C15.3934357,16.1468105 15.5543215,16.0298061 15.7127604,15.9101238 L15.7225481,15.902914 C15.7831097,15.8580074 15.8424478,15.8102169 15.9007664,15.7622204 C16.0165879,15.6684932 16.1417893,15.5605525 16.2798371,15.4264506 C16.3047143,15.4029674 16.3324462,15.381544 16.3569155,15.3584727 C16.3660915,15.3465251 16.3744519,15.3339595 16.3824044,15.3211878 C16.7202851,14.9786203 17.0237048,14.6028878 17.2883813,14.1997582 C18.2353444,12.7660421 19.8764207,11.2499286 20.4822405,11.2499286 C20.8052357,11.2400409 21.107228,11.4103977 21.2685217,11.693227 C21.341114,11.8695576 21.2685217,12.0677236 21.0582893,12.281751 C19.6774035,13.6769463 18.8754212,15.4381923 18.1013748,17.1417601 C17.2995964,18.908156 16.539212,20.5762928 15.1876894,21.8785849 C14.9366749,22.1095039 14.7056436,22.3616401 14.4972465,22.6323158 C13.8543149,23.508819 13.8004823,24.5223079 13.8004823,25.4834745 L13.8004823,25.6499174 C13.8004823,25.8985517 13.6010573,26.1000136 13.3549366,26.1000136 L6.22783662,26.1000136 C5.98171593,26.1000136 5.78229087,25.8985517 5.78229087,25.6499174 L5.78229087,23.3685373 C5.78514565,23.0982736 5.70643595,22.8337777 5.55696914,22.6098625 C5.27679535,22.203643 5.04698755,21.7642584 4.87223577,21.3015966 L0.952453093,9.81847847 C0.782391227,9.35787658 0.983447577,8.84165637 1.41879774,8.62144913 L1.41879774,8.62144913 Z" id="Shape"></path>
            </g>
        </g>
    </g>
</svg>